<svg xmlns="http://www.w3.org/2000/svg" xmlns:xlink="http://www.w3.org/1999/xlink" fill="none" version="1.1" width="94.40768432617188" height="36" viewBox="0 0 94.40768432617188 36"><defs><linearGradient x1="0.5" y1="0" x2="0.5605313373663898" y2="0.5814207112200855" id="master_svg0_365_154846"><stop offset="0%" stop-color="#0F0F11" stop-opacity="1"/><stop offset="100%" stop-color="#0F0F11" stop-opacity="0"/></linearGradient></defs><g><path d="M32,17.941662L32,18.005829L31.999998,18.011668999999998L31.999998,18.075836000000002L31.994181,18.075836000000002C31.924356,25.775833,25.680798,32,17.982542000000002,32L17.982542000000002,24.57547L18.636110000000002,22.90527C19.256038,21.313915,20.486492,20.033298,22.0457,19.345913L25.229858,17.93347C25.577391,17.782807,25.577391,17.283745,25.229858,17.133082L22.0457,15.720638C20.486496,15.033254,19.256039,13.7526379,18.636110000000002,12.1612835L17.011157,8.008698500000001C16.870265,7.6414642,16.344269,7.6414642,16.203376,8.008698500000001L14.578422,12.1612835C13.9584961,13.7526379,12.7280397,15.033254,11.1688328,15.720638L7.9846723,17.133082C7.6371388,17.283745,7.6371388,17.782807,7.9846723,17.93347L11.1688328,19.345913C12.7280388,20.033298,13.9584942,21.313915,14.578422,22.90527L15.67434,25.705898C13.1693172,29.499159,8.8787179,32,4,32L4,4L18.017457,4L18.017457,4.023329414C25.698256,4.040828705,31.924356,10.253333999999999,31.994183,17.941662L32,17.941662Z" fill-rule="evenodd" fill="#1D2129" fill-opacity="1"/></g><g><path d="M22.045697229174806,15.72066781987915L25.229856529174803,17.13311151987915C25.577388729174807,17.283773919879152,25.577388729174807,17.78283641987915,25.229856529174803,17.933498819879148L22.045697229174806,19.34594221987915C20.486491229174803,20.03332721987915,19.256035829174806,21.31394421987915,18.636108429174804,22.90529821987915L18.017457129174804,24.48626721987915L18.017457129174804,31.92411121987915L31.970907529174802,19.07327821987915L17.072359736923804,8.16513679518515L18.636108429174804,12.161312619879151C19.256036729174806,13.75266691987915,20.486493129174804,15.03328271987915,22.045697229174806,15.72066781987915Z" fill-rule="evenodd" fill="url(#master_svg0_365_154846)" fill-opacity="1" style="mix-blend-mode:passthrough"/></g><path d="M64.692612,18.003206043666918C64.692612,22.964290743666915,60.297022,26.999989743666916,55.335958,26.999989743666916L44,26.999989743666916L44,9.006422743666917L55.335958,9.006422743666917C60.297022,9.006422743666917,64.692612,13.042122143666917,64.692612,18.003206043666918ZM61.145294,18.003206043666918C61.145294,14.892891643666918,58.420561,12.373793843666917,55.335958,12.373793843666917L47.5730071,12.373793843666917L47.5730071,23.632627743666916L55.335958,23.632627743666916C58.420561,23.632627743666916,61.145294,21.11352874366692,61.145294,18.003206043666918Z" fill="#1D2129" fill-opacity="1"/><path d="M67.13458824157715,26.993567L67.13458824157715,9L70.70759514157714,9L70.70759514157714,26.993567L67.13458824157715,26.993567Z" fill="#1D2129" fill-opacity="1"/><path d="M94.40769368347168,15.381295249562307C94.40769368347168,18.902889249562307,91.16886668347168,21.756157549562303,87.64724168347168,21.756157549562303L77.49373578347168,21.756157549562303L77.49373578347168,26.999999549562304L73.92072868347168,26.999999549562304L73.92072868347168,9.006432549562305L87.64724168347168,9.006432549562305C91.16882668347168,9.006432549562305,94.40769368347168,11.859699549562306,94.40769368347168,15.381295249562307ZM90.83468868347168,15.381295249562307C90.83468868347168,13.607646949562305,89.24098368347168,12.193858649562305,87.46732568347169,12.193858649562305L77.49373578347168,12.193858649562305L77.49373578347168,18.568721749562307L87.46732568347169,18.568721749562307C89.24098368347168,18.568721749562307,90.83468868347168,17.129231449562305,90.83468868347168,15.381295249562307Z" fill="#1D2129" fill-opacity="1"/></svg>