<svg xmlns="http://www.w3.org/2000/svg" xmlns:xlink="http://www.w3.org/1999/xlink" fill="none" version="1.1" width="36" height="36" viewBox="0 0 36 36"><g><path d="M32,17.941662L32,18.005829L31.999998,18.011668999999998L31.999998,18.075836000000002L31.994181,18.075836000000002C31.924356,25.775833,25.680798,32,17.982542000000002,32L17.982542000000002,24.575724L18.636209,22.90527C19.256137000000003,21.313915,20.486591,20.033298,22.045799,19.345913L25.229958,17.93347C25.57749,17.782807,25.57749,17.283745,25.229958,17.133082L22.045799,15.720638C20.486595,15.033254,19.256138,13.7526379,18.636209,12.1612835L17.011256,8.008698500000001C16.870364000000002,7.6414642,16.344368,7.6414642,16.203474999999997,8.008698500000001L14.578521,12.1612835C13.9585953,13.7526379,12.7281389,15.033254,11.168932,15.720638L7.9847715,17.133082C7.637238,17.283745,7.637238,17.782807,7.9847715,17.93347L11.168932,19.345913C12.728138,20.033298,13.9585934,21.313915,14.578521,22.90527L15.674402,25.705805C13.1693878,29.499119,8.878758399999999,32,4,32L4,4L18.017457,4L18.017457,4.023329414C25.698256,4.040828705,31.924356,10.253333999999999,31.994183,17.941662L32,17.941662Z" fill-rule="evenodd" fill="#1D2129" fill-opacity="1"/></g></svg>