<?xml version="1.0" encoding="UTF-8"?>
<svg id="_图层_2" data-name="图层 2" xmlns="http://www.w3.org/2000/svg" viewBox="0 0 453.87 80.95">
  <defs>
    <style>
      .cls-1 {
        fill: #0a46be;
      }

      .cls-1, .cls-2 {
        stroke-width: 0px;
      }

      .cls-2 {
        fill: #ff730f;
      }
    </style>
  </defs>
  <g id="_图层_1-2" data-name="图层 1">
    <g>
      <g>
        <path class="cls-1" d="M189.75,55.21v21.69h-10.69v-21.69h-26.22V17.71h26.22V7.98h10.69v9.73h21.83c2.51,0,4.55,2.04,4.55,4.55v32.95h-26.37ZM179.05,47.98v-23.13h-17.27v23.13h17.27ZM189.75,47.98h17.42v-23.13h-17.42v23.13Z"/>
        <g>
          <polygon class="cls-1" points="297.31 51.64 291.69 51.97 291.69 7.98 282.59 7.98 282.59 52.51 259.52 53.87 259.52 60.92 282.59 59.61 282.59 76.9 291.69 76.9 291.69 59.1 297.31 58.78 297.31 51.64"/>
          <polygon class="cls-1" points="257.55 25.39 247.76 25.39 247.76 16.4 256.79 15.92 256.79 8.78 229.85 10.56 229.85 17.35 239.11 16.86 239.11 25.39 228.33 25.39 228.33 32.17 232.88 32.17 239.11 32.17 239.11 76.9 247.76 76.9 247.76 32.17 257.55 32.17 257.55 25.39"/>
          <polygon class="cls-1" points="228.06 66.01 234.82 66.01 236.6 34.09 229.83 34.09 228.06 66.01"/>
          <polygon class="cls-1" points="249.42 34.09 251.2 66.01 257.96 66.01 256.18 34.09 249.42 34.09"/>
          <polygon class="cls-1" points="278.13 19.33 262.18 13.08 262.18 21.69 278.13 27.94 278.13 19.33"/>
          <polygon class="cls-1" points="278.13 37.25 262.18 31.01 262.18 39.62 278.13 45.86 278.13 37.25"/>
        </g>
        <path class="cls-1" d="M421.69,46.28h-3.12v30.62h-8.12v-30.62h-26.85v-6.61h38.08v6.61ZM410.45,37.45h8.12v-20.71h3.12v-6.52h-37.7v6.52h26.47v20.71ZM403.64,19.68c1.67,0,3.03,1.36,3.03,3.03v13.66h-20.41v-16.69h17.38ZM399.69,25.12h-6.38v5.71h6.38v-5.71ZM406.67,52.52v15.72h-20.41v-18.75h17.38c1.67,0,3.03,1.36,3.03,3.03ZM399.69,55.21h-6.38v7.41h6.38v-7.41ZM453.87,76.9l-11-31.64h-2.54v-18.26h-8.17v16.68l-10.65,33.22h8.89l7.1-22.58,7.85,22.58h8.53ZM429.25,30.84l3.17-10.27h12.11l-2.61,9.47h6.76l3.1-10.39c.19-.64.29-1.31.29-1.99,0-2.39-1.93-4.32-4.32-4.32h-13.1l1.65-5.36h-8.84l-6.3,22.85h8.08Z"/>
        <path class="cls-1" d="M308.13,22.86h8.95v54.05h-8.95V22.86ZM325.49,19.68l-7.34-11.69h-10.01l7.34,11.69h10.01ZM321.03,22.86h38.77v6.56h-4.11v30.86l4.11-.24v6.82l-4.11.23v7.52h-8.23v-7.06l-26.43,1.5v-6.73l4.04-.24V29.42h-4.04v-6.56ZM333.36,35.85h14.1v-6.43h-14.1v6.43ZM333.36,48.29h14.1v-6.43h-14.1v6.43ZM333.36,54.39v7.21l14.1-.83v-6.37h-14.1ZM368.14,10.22h-43.35l4.09,6.52h34.85v60.17h8.95V14.76c0-2.51-2.04-4.55-4.55-4.55Z"/>
      </g>
      <g>
        <path class="cls-2" d="M19.76,27.07L35.12,3.87c1.07-1.61-.09-3.76-2.02-3.76H2.43C.5.1-.66,2.25.41,3.87l15.31,23.2c.96,1.45,3.09,1.45,4.05,0Z"/>
        <path class="cls-1" d="M133.94.1h-25.06c-.81,0-1.57.41-2.02,1.09l-35.95,54.25c-1.28,1.93-4.11,1.93-5.39,0l-14.05-21.12c-1.43-2.15.11-5.03,2.69-5.03h25.05c3.22,0,5.15-3.58,3.37-6.27L68.31,1.45c-1.28-1.93-4.11-1.93-5.39,0l-30.87,46.64c-.72,1.08-.72,2.49,0,3.57l18.66,28.21c.96,1.45,3.09,1.45,4.05,0l10.78-16.28c1.28-1.93,4.12-1.93,5.4,0l10.72,16.27c.96,1.45,3.09,1.45,4.05,0L135.96,3.87c1.07-1.61-.09-3.76-2.02-3.76Z"/>
      </g>
    </g>
  </g>
</svg>